<svg width="287" height="272" viewBox="0 0 287 272" fill="none" xmlns="http://www.w3.org/2000/svg">
<path d="M142 0L183.5 98.3525L286.5 111.853L213 167.353L230.168 271.353L142 211.253L53.8322 271.353L70 167.353L0 111.853L94 98.3525L142 0Z" fill="#3E00FF"/>
<path d="M164.923 169.476C165.474 169.434 165.954 169.846 165.997 170.396C166.04 170.947 165.628 171.428 165.077 171.47L164.923 169.476ZM127.244 172.827C127.78 175.724 125.866 178.506 122.97 179.042C120.073 179.577 117.291 177.663 116.756 174.767C116.22 171.87 118.134 169.088 121.03 168.553C123.927 168.017 126.709 169.931 127.244 172.827ZM165.077 171.47L122.077 174.794L121.923 172.8L164.923 169.476L165.077 171.47Z" fill="white"/>
<path d="M91.5389 142.773C97.7501 149.955 120.781 155.704 131.124 141.352L91.5389 142.773Z" fill="white"/>
<path d="M156.198 141.198C162.678 150.104 185.627 155.836 195.783 139.777L156.198 141.198Z" fill="white"/>
</svg>
